P3
38
36
255
0
255
255
0
252
252
0
251
251
0
255
255
0
255
255
0
255
255
0
249
249
0
249
249
0
255
255
0
249
249
0
255
255
0
250
250
0
255
255
0
250
250
0
250
250
0
255
255
0
255
255
0
251
255
0
249
255
0
248
255
0
234
255
0
242
255
0
245
253
0
246
243
0
253
241
0
255
237
0
255
237
0
255
241
0
255
246
0
255
253
0
255
255
0
252
255
0
248
241
0
251
239
0
247
241
0
254
253
0
255
255
0
255
255
0
242
242
0
255
255
0
241
241
0
255
255
0
255
255
0
250
250
0
255
255
0
255
255
0
255
255
0
255
255
0
255
255
0
248
248
0
233
233
0
255
255
0
250
250
0
239
241
0
255
255
0
255
255
0
253
255
0
250
255
0
239
254
0
244
255
0
249
255
0
251
250
0
255
244
0
255
241
0
255
241
0
255
244
0
255
250
0
255
255
0
254
255
0
253
255
0
251
246
0
253
244
0
251
248
0
255
255
0
254
255
0
255
255
0
255
255
0
237
237
0
4
4
0
0
0
0
0
0
0
0
0
0
12
12
0
0
0
0
0
0
0
0
0
0
0
0
0
4
4
0
20
20
0
236
236
0
252
252
0
255
253
0
255
250
0
255
249
0
255
255
0
254
255
0
255
255
0
255
255
0
255
255
0
255
255
0
255
250
0
255
247
0
255
247
0
255
248
0
253
252
0
252
255
0
250
255
0
252
255
0
255
255
0
255
255
0
255
255
0
252
255
0
253
255
0
253
255
0
255
255
0
255
255
0
0
0
0
5
5
0
10
10
0
3
3
0
7
7
0
0
0
0
0
0
0
0
0
0
0
0
0
0
0
0
0
0
0
255
255
0
255
255
0
255
251
0
255
244
0
255
244
0
254
248
0
253
253
0
255
255
0
255
255
0
255
255
0
255
255
0
255
255
0
255
255
0
255
255
0
255
255
0
255
255
0
255
255
0
255
255
0
255
255
0
255
255
0
255
255
0
255
255
0
243
253
0
247
254
0
248
251
0
253
253
0
255
255
0
8
8
0
0
0
0
0
0
0
0
0
0
0
0
0
17
17
0
5
5
0
0
0
0
15
15
0
4
4
0
2
2
0
255
255
0
255
255
0
244
239
0
252
239
0
255
241
0
255
255
0
255
255
0
255
255
0
255
255
0
255
255
0
255
255
0
255
255
0
255
255
0
255
255
0
255
255
0
255
255
0
255
255
0
255
255
0
255
255
0
255
255
0
255
255
0
255
255
0
251
255
0
251
255
0
245
245
0
255
255
0
255
255
0
2
2
0
0
0
0
12
12
0
15
15
0
0
0
0
0
0
0
4
4
0
0
0
0
0
0
0
0
0
0
0
0
0
248
248
0
255
255
0
255
251
0
255
246
0
255
250
0
255
255
0
249
255
0
183
194
0
169
184
0
164
193
0
167
206
0
164
206
0
166
206
0
170
204
0
167
201
0
156
199
0
154
199
0
162
199
0
168
195
0
171
188
0
171
186
0
236
255
0
233
253
0
248
254
0
248
245
0
254
254
0
255
255
0
4
4
0
0
0
0
0
0
0
0
0
0
0
0
0
3
3
0
0
0
0
3
3
0
0
0
0
6
6
0
9
9
0
252
252
0
254
254
0
250
251
0
244
245
0
249
255
0
252
255
0
255
255
0
169
193
0
175
207
0
174
222
0
179
236
0
176
238
0
179
238
0
185
236
0
182
233
0
170
229
0
169
227
0
180
226
0
185
219
0
184
207
0
183
203
0
255
255
0
248
255
0
247
253
0
244
241
0
253
253
0
255
255
0
0
0
0
0
0
0
12
12
0
0
0
0
11
11
0
0
0
0
0
0
0
8
8
0
0
0
0
3
3
0
1
1
0
255
255
0
255
255
0
253
254
0
250
255
0
249
255
0
246
255
0
255
255
0
172
204
0
194
232
0
186
243
0
177
245
0
178
251
0
181
251
0
188
249
0
186
246
0
173
240
0
173
237
0
185
235
0
190
226
0
181
205
0
177
199
0
255
255
0
248
255
0
246
253
0
237
234
0
255
255
0
255
255
0
0
0
0
4
4
0
2
2
0
0
0
0
0
0
0
0
0
0
0
0
0
2
2
0
0
0
0
9
9
0
0
0
0
255
255
0
255
255
0
252
253
0
250
255
0
249
255
0
246
255
0
255
255
0
172
204
0
194
232
0
186
243
0
177
245
0
178
251
0
181
251
0
188
249
0
186
246
0
173
240
0
173
237
0
185
235
0
190
226
0
181
205
0
177
199
0
255
255
0
248
255
0
246
253
0
237
234
0
253
253
0
255
255
0
0
0
0
4
4
0
0
0
0
0
0
0
7
7
0
7
7
0
4
4
0
0
0
0
8
8
0
6
6
0
9
9
0
244
244
0
255
255
0
254
255
0
244
245
0
249
255
0
252
255
0
255
255
0
169
193
0
175
207
0
174
222
0
179
236
0
176
238
0
179
238
0
185
236
0
182
233
0
170
229
0
169
227
0
180
226
0
185
219
0
184
207
0
183
203
0
255
255
0
248
255
0
247
253
0
244
241
0
251
251
0
255
255
0
0
0
0
0
0
0
0
0
0
0
0
0
0
0
0
0
0
0
0
0
0
0
0
0
2
2
0
0
0
0
1
1
0
250
250
0
255
255
0
255
251
0
255
246
0
255
250
0
255
255
0
249
255
0
183
194
0
169
184
0
164
193
0
167
206
0
164
206
0
166
206
0
170
204
0
167
201
0
156
199
0
154
199
0
162
199
0
168
195
0
171
188
0
171
186
0
236
255
0
233
253
0
248
254
0
248
245
0
255
255
0
255
255
0
0
0
0
5
5
0
5
5
0
9
9
0
1
1
0
0
0
0
2
2
0
10
10
0
0
0
0
0
0
0
0
0
0
255
255
0
252
252
0
244
239
0
252
239
0
255
241
0
255
255
0
255
255
0
255
255
0
255
255
0
255
255
0
255
255
0
255
255
0
255
255
0
255
255
0
255
255
0
255
255
0
255
255
0
255
255
0
255
255
0
255
255
0
255
255
0
255
255
0
251
255
0
251
255
0
245
245
0
250
250
0
236
236
0
11
11
0
0
0
0
0
0
0
0
0
0
2
2
0
14
14
0
0
0
0
0
0
0
0
0
0
0
0
0
15
15
0
240
240
0
255
255
0
255
251
0
255
244
0
255
244
0
254
248
0
253
253
0
255
255
0
255
255
0
255
255
0
255
255
0
255
255
0
255
255
0
255
255
0
255
255
0
255
255
0
255
255
0
255
255
0
255
255
0
255
255
0
255
255
0
255
255
0
243
253
0
247
254
0
248
251
0
249
249
0
255
255
0
229
229
0
255
255
0
255
255
0
255
255
0
246
246
0
246
246
0
255
255
0
245
245
0
255
255
0
255
255
0
247
247
0
255
255
0
246
246
0
236
233
0
255
250
0
255
249
0
255
255
0
254
255
0
255
255
0
255
255
0
255
255
0
255
255
0
255
250
0
255
247
0
255
247
0
255
248
0
253
252
0
252
255
0
250
255
0
252
255
0
255
255
0
255
255
0
255
255
0
252
255
0
253
255
0
253
255
0
247
247
0
255
255
0
253
253
0
255
255
0
251
251
0
251
251
0
251
251
0
255
255
0
255
255
0
246
246
0
255
255
0
246
246
0
255
255
0
234
234
0
255
255
0
255
255
0
255
255
0
255
255
0
253
255
0
250
255
0
239
254
0
244
255
0
249
255
0
251
250
0
255
244
0
255
241
0
255
241
0
255
244
0
255
250
0
255
255
0
254
255
0
253
255
0
251
246
0
253
244
0
251
248
0
255
255
0
254
255
0
255
255
0
255
255
0
243
245
0
255
251
0
252
248
0
254
255
0
255
255
0
255
251
0
255
251
0
252
255
0
255
255
0
251
255
0
255
255
0
255
253
0
251
249
0
255
255
0
237
240
0
254
255
0
249
255
0
247
255
0
247
255
0
235
253
0
244
255
0
246
253
0
247
245
0
255
244
0
255
241
0
255
243
0
255
244
0
255
250
0
255
253
0
254
255
0
253
255
0
249
246
0
252
246
0
247
244
0
253
255
0
254
255
0
255
255
0
251
255
0
255
255
0
252
240
0
253
242
0
252
255
0
249
253
0
255
243
0
255
244
0
255
255
0
255
255
0
255
255
0
253
255
0
253
249
0
255
249
0
255
255
0
255
255
0
250
255
0
241
255
0
246
255
0
239
255
0
232
248
0
246
255
0
249
255
0
253
253
0
255
251
0
255
250
0
255
251
0
255
251
0
255
253
0
255
255
0
254
255
0
253
255
0
255
255
0
244
249
0
255
255
0
243
249
0
253
255
0
249
254
0
255
255
0
255
255
0
255
236
0
255
236
0
250
255
0
248
254
0
255
242
0
255
245
0
250
255
0
251
255
0
249
255
0
248
253
0
251
243
0
255
245
0
255
255
0
255
255
0
252
255
0
236
249
0
247
255
0
248
255
0
249
255
0
250
255
0
244
245
0
250
249
0
255
255
0
255
255
0
255
255
0
255
255
0
255
255
0
255
255
0
253
255
0
253
255
0
254
255
0
252
255
0
255
255
0
253
255
0
254
255
0
253
255
0
246
255
0
255
251
0
247
216
0
250
221
0
249
250
0
246
253
0
255
248
0
255
255
0
252
255
0
249
255
0
248
255
0
249
253
0
252
241
0
255
241
0
255
253
0
255
255
0
255
255
0
255
255
0
255
255
0
255
255
0
255
255
0
255
255
0
252
249
0
255
253
0
255
250
0
255
252
0
255
252
0
253
254
0
251
255
0
249
255
0
247
255
0
249
255
0
255
255
0
252
253
0
254
255
0
251
252
0
252
254
0
255
255
0
255
255
0
255
237
0
254
192
0
255
179
0
255
198
0
255
204
0
255
197
0
255
204
0
252
218
0
254
226
0
251
209
0
247
197
0
250
201
0
255
220
0
255
246
0
255
255
0
255
253
0
255
255
0
255
255
0
253
245
0
255
248
0
255
253
0
255
249
0
255
251
0
255
251
0
255
251
0
253
253
0
253
255
0
252
255
0
251
255
0
251
255
0
252
255
0
254
255
0
254
249
0
255
253
0
255
253
0
255
253
0
246
243
0
249
247
0
253
212
0
232
115
0
231
71
0
233
68
0
228
53
0
235
48
0
235
48
0
239
67
0
240
76
0
237
71
0
232
81
0
239
117
0
253
174
0
255
232
0
255
254
0
255
254
0
255
253
0
255
251
0
255
248
0
255
251
0
255
250
0
255
245
0
243
234
0
254
248
0
251
248
0
250
250
0
250
251
0
252
251
0
254
253
0
255
255
0
255
253
0
242
236
0
236
229
0
252
246
0
248
241
0
255
251
0
241
235
0
254
255
0
255
211
0
239
92
0
237
31
0
242
18
0
239
0
0
247
0
0
245
0
0
239
0
0
242
8
0
237
5
0
228
23
0
236
78
0
253
156
0
255
230
0
255
255
0
255
255
0
251
247
0
254
248
0
255
251
0
255
248
0
247
236
0
255
244
0
251
243
0
245
243
0
241
243
0
239
243
0
240
243
0
244
243
0
247
244
0
252
244
0
250
243
0
243
237
0
242
237
0
246
241
0
244
237
0
255
248
0
249
242
0
250
255
0
251
209
0
231
78
0
232
14
0
241
6
0
238
0
0
245
0
0
243
0
0
246
7
0
248
12
0
243
6
0
233
22
0
239
82
0
255
164
0
255
241
0
249
255
0
248
255
0
246
253
0
253
253
0
254
251
0
240
234
0
239
232
0
246
241
0
214
213
0
230
236
0
225
234
0
222
232
0
223
230
0
228
230
0
233
230
0
238
230
0
238
228
0
223
221
0
229
228
0
216
212
0
245
239
0
252
246
0
255
248
0
253
255
0
255
208
0
238
69
0
238
6
0
245
1
0
238
0
0
241
0
0
235
0
0
233
4
0
239
8
0
236
0
0
230
15
0
238
78
0
255
160
0
255
237
0
249
255
0
250
255
0
250
255
0
249
251
0
253
250
0
246
240
0
247
243
0
223
221
0
79
83
0
54
63
0
47
60
0
42
56
0
42
55
0
46
53
0
51
51
0
57
49
0
58
51
0
52
56
0
65
72
0
78
79
0
228
226
0
247
242
0
254
248
0
255
244
0
255
193
0
239
50
0
247
0
0
237
0
0
239
0
0
235
5
0
237
16
0
236
24
0
234
18
0
237
5
0
239
22
0
230
63
0
255
156
0
255
220
0
255
255
0
255
255
0
253
255
0
255
255
0
255
252
0
254
248
0
248
241
0
237
236
0
55
59
0
46
58
0
37
51
0
30
47
0
27
42
0
30
40
0
33
37
0
39
35
0
40
40
0
41
52
0
45
61
0
59
68
0
233
236
0
246
243
0
250
244
0
255
246
0
255
191
0
241
47
0
248
0
0
238
0
0
240
0
0
235
7
0
236
18
0
237
26
0
234
18
0
238
5
0
239
23
0
231
64
0
255
159
0
255
220
0
255
255
0
255
255
0
255
255
0
255
255
0
251
247
0
248
244
0
239
236
0
233
234
0
65
71
0
46
58
0
35
52
0
27
45
0
24
42
0
25
38
0
28
35
0
32
33
0
35
40
0
42
59
0
43
64
0
44
56
0
230
236
0
239
238
0
250
246
0
255
255
0
255
209
0
240
54
0
248
0
0
239
0
0
241
0
0
238
2
0
239
9
0
240
13
0
237
7
0
240
2
0
240
27
0
228
77
0
255
175
0
255
236
0
255
255
0
253
255
0
252
255
0
252
255
0
241
247
0
245
250
0
238
243
0
219
227
0
42
52
0
41
55
0
32
48
0
26
43
0
23
39
0
23
36
0
24
34
0
27
32
0
31
39
0
35
53
0
43
64
0
46
61
0
231
237
0
243
243
0
250
246
0
254
255
0
255
211
0
240
56
0
248
0
0
239
0
0
242
0
0
240
0
0
242
4
0
243
3
0
240
0
0
241
0
0
239
29
0
227
82
0
255
181
0
255
237
0
255
255
0
255
255
0
254
255
0
251
255
0
247
251
0
247
250
0
242
244
0
227
228
0
91
95
0
57
64
0
51
58
0
47
53
0
44
51
0
44
49
0
45
48
0
47
46
0
48
51
0
48
62
0
63
81
0
76
87
0
223
227
0
239
239
0
250
246
0
255
255
0
255
202
0
239
50
0
249
0
0
239
0
0
242
0
0
240
0
0
243
0
0
245
0
0
242
0
0
242
0
0
239
29
0
227
82
0
255
175
0
255
225
0
255
251
0
255
255
0
255
255
0
255
255
0
255
253
0
254
246
0
247
236
0
253
243
0
223
212
0
246
235
0
244
231
0
242
229
0
241
229
0
241
227
0
242
227
0
242
227
0
240
229
0
232
235
0
229
237
0
217
223
0
242
243
0
248
244
0
243
239
0
254
255
0
255
200
0
239
49
0
248
0
0
238
0
0
241
1
0
240
0
0
244
0
0
246
0
0
242
0
0
242
0
0
239
30
0
226
86
0
255
177
0
255
220
0
255
246
0
255
253
0
255
255
0
255
253
0
255
253
0
255
250
0
249
240
0
255
246
0
255
244
0
255
244
0
255
244
0
255
244
0
255
244
0
255
246
0
255
246
0
255
246
0
255
246
0
250
246
0
248
246
0
249
246
0
243
239
0
250
246
0
241
236
0
251
255
0
255
205
0
237
54
0
246
4
0
236
2
0
240
6
0
240
2
0
244
0
0
247
0
0
242
0
0
241
2
0
237
37
0
224
93
0
255
184
0
255
223
0
255
246
0
255
251
0
255
253
0
247
245
0
253
251
0
251
251
0
250
251
0
248
248
0
244
243
0
252
251
0
253
253
0
253
255
0
253
255
0
252
255
0
250
255
0
248
255
0
251
255
0
252
246
0
255
250
0
255
250
0
255
247
0
254
246
0
249
243
0
253
251
0
255
207
0
233
82
0
241
41
0
234
34
0
238
35
0
239
26
0
242
23
0
244
21
0
241
19
0
238
32
0
235
64
0
223
110
0
255
193
0
255
225
0
255
243
0
250
245
0
254
251
0
251
252
0
247
248
0
245
250
0
244
249
0
247
251
0
250
255
0
253
255
0
254
255
0
254
255
0
254
255
0
252
255
0
250
255
0
249
255
0
253
255
0
255
255
0
255
253
0
254
242
0
255
249
0
254
249
0
254
248
0
255
227
0
251
197
0
242
145
0
235
110
0
233
95
0
235
85
0
236
73
0
235
66
0
235
66
0
235
73
0
233
87
0
234
112
0
238
153
0
246
189
0
255
220
0
255
237
0
255
248
0
255
253
0
254
255
0
253
253
0
253
255
0
253
255
0
253
255
0
254
255
0
254
255
0
255
255
0
255
255
0
254
255
0
254
255
0
254
255
0
253
255
0
254
255
0
255
255
0
255
255
0
255
253
0
255
253
0
255
253
0
255
253
0
255
227
0
255
220
0
255
206
0
255
193
0
255
182
0
255
170
0
255
161
0
255
156
0
255
158
0
255
165
0
255
177
0
255
191
0
255
209
0
255
223
0
255
234
0
255
244
0
255
251
0
255
255
0
255
255
0
255
255
0
255
255
0
255
255
0
255
255
0
255
255
0
255
255
0
255
255
0
255
255
0
255
255
0
255
255
0
255
255
0
255
255
0
255
255
0
255
255
0
255
255
0
255
255
0
255
255
0
255
255
0
255
255
0
255
250
0
254
244
0
253
235
0
255
230
0
255
223
0
255
216
0
255
211
0
255
209
0
255
208
0
255
213
0
255
221
0
255
232
0
255
243
0
253
250
0
251
255
0
250
255
0
255
255
0
255
255
0
255
255
0
255
255
0
255
255
0
255
255
0
255
255
0
255
255
0
255
255
0
255
255
0
255
255
0
255
255
0
255
255
0
255
255
0
255
255
0
255
255
0
255
255
0
255
255
0
255
255
0
255
255
0
255
255
0
255
255
0
253
255
0
254
255
0
254
253
0
255
248
0
254
244
0
255
239
0
252
233
0
249
228
0
248
229
0
250
234
0
250
241
0
254
251
0
252
255
0
252
255
0
250
255
0
251
255
0
254
255
0
255
255
0
255
255
0
255
255
0
255
255
0
255
255
0
255
255
0
255
255
0
255
255
0
255
255
0
255
255
0
255
255
0
255
255
0
255
255
0
255
255
0
255
255
0
255
255
0
255
255
0
255
255
0
255
255
0
255
255
0
255
255
